<svg width="30" height="30" viewBox="0 0 30 30" fill="none" xmlns="http://www.w3.org/2000/svg">
<path d="M15 3.75C12.775 3.75 10.5999 4.4098 8.74984 5.64597C6.89979 6.88213 5.45785 8.63914 4.60636 10.6948C3.75487 12.7505 3.53209 15.0125 3.96617 17.1948C4.40025 19.3771 5.47171 21.3816 7.04505 22.9549C8.61839 24.5283 10.623 25.5998 12.8052 26.0338C14.9875 26.4679 17.2495 26.2451 19.3052 25.3936C21.3609 24.5422 23.1179 23.1002 24.354 21.2502C25.5902 19.4001 26.25 17.225 26.25 15C26.25 14.425 26.2 13.85 26.125 13.3C25.5004 14.1758 24.6752 14.8893 23.7183 15.3808C22.7614 15.8723 21.7007 16.1275 20.625 16.125C19.194 16.125 17.8 15.6705 16.644 14.8271C15.488 13.9836 14.6298 12.7948 14.1932 11.432C13.7565 10.0693 13.764 8.60304 14.2146 7.24482C14.6651 5.88661 15.5355 4.7066 16.7 3.875C16.15 3.8 15.575 3.75 15 3.75Z" fill="black"/>
</svg>
