<svg width="30" height="30" viewBox="0 0 30 30" fill="none" xmlns="http://www.w3.org/2000/svg">
<path d="M15 1.875V8.4375C15 9.18342 15.2963 9.89879 15.8238 10.4262C16.3512 10.9537 17.0666 11.25 17.8125 11.25H24.375V25.3125C24.375 26.0584 24.0787 26.7738 23.5512 27.3012C23.0238 27.8287 22.3084 28.125 21.5625 28.125H8.4375C7.69158 28.125 6.97621 27.8287 6.44876 27.3012C5.92132 26.7738 5.625 26.0584 5.625 25.3125V4.6875C5.625 3.94158 5.92132 3.22621 6.44876 2.69876C6.97621 2.17132 7.69158 1.875 8.4375 1.875H15ZM16.875 2.34375V8.4375C16.875 8.68614 16.9738 8.9246 17.1496 9.10041C17.3254 9.27623 17.5639 9.375 17.8125 9.375H23.9062L16.875 2.34375Z" fill="#FF8811"/>
</svg>
