<svg width="296" height="46" viewBox="0 0 296 46" fill="none" xmlns="http://www.w3.org/2000/svg">
<path d="M17.6397 23.785C17.2197 25.255 16.8297 26.635 16.4697 27.925C16.1097 29.185 15.7047 30.43 15.2547 31.66C14.9247 32.56 14.5197 33.43 14.0397 34.27C13.5597 35.14 13.0197 35.935 12.4197 36.655C11.8197 37.375 11.0247 37.795 10.0347 37.915C9.07475 38.065 8.15975 37.93 7.28975 37.51C6.41975 37.12 5.81975 36.49 5.48975 35.62C5.00975 34.39 4.61975 33.115 4.31975 31.795C4.04975 30.445 3.79475 29.125 3.55475 27.835C3.01475 24.865 2.48975 21.895 1.97975 18.925C1.49975 15.955 1.00475 12.985 0.494746 10.015C0.284746 8.725 0.269746 7.39 0.449746 6.01C0.599746 5.11 0.929746 4.465 1.43975 4.075C1.97975 3.655 2.66975 3.46 3.50975 3.49C4.31975 3.52 4.97975 3.775 5.48975 4.255C6.02975 4.705 6.35975 5.395 6.47975 6.325C6.98975 9.595 7.43975 12.88 7.82975 16.18C8.09975 18.13 8.33975 20.095 8.54975 22.075C8.78975 24.025 9.04475 25.975 9.31475 27.925C9.34475 28.135 9.38975 28.33 9.44975 28.51C9.53975 28.69 9.68975 28.885 9.89975 29.095C9.98975 28.855 10.0947 28.615 10.2147 28.375C10.3347 28.105 10.4097 27.85 10.4397 27.61C10.8897 25.93 11.3397 24.265 11.7897 22.615C12.2697 20.935 12.7197 19.255 13.1397 17.575C13.3797 16.705 13.7397 15.97 14.2197 15.37C14.6997 14.74 15.3147 14.2 16.0647 13.75C17.0847 13.15 18.0147 12.97 18.8547 13.21C19.7247 13.42 20.3547 14.08 20.7447 15.19C21.4347 17.08 22.0647 18.985 22.6347 20.905C23.2347 22.795 23.8347 24.715 24.4347 26.665C24.5547 27.055 24.6597 27.445 24.7497 27.835C24.8697 28.225 24.9897 28.63 25.1097 29.05C25.2297 29.02 25.3797 29.005 25.5597 29.005C25.7997 27.655 26.0397 26.305 26.2797 24.955C26.5497 23.605 26.7897 22.27 26.9997 20.95C27.3597 18.61 27.7047 16.27 28.0347 13.93C28.3647 11.59 28.6947 9.25 29.0247 6.91C29.3247 4.99 30.5397 4.18 32.6697 4.48C33.4797 4.6 34.1097 4.975 34.5597 5.605C35.0397 6.205 35.2047 6.97 35.0547 7.9C34.7547 9.82 34.4547 11.755 34.1547 13.705C33.8547 15.625 33.5397 17.545 33.2097 19.465C32.8197 22.045 32.4147 24.61 31.9947 27.16C31.6047 29.68 30.9297 32.14 29.9697 34.54C29.6997 35.32 29.3247 35.98 28.8447 36.52C28.3947 37.09 27.7197 37.45 26.8197 37.6C25.8597 37.72 24.9747 37.615 24.1647 37.285C23.3847 36.955 22.7847 36.355 22.3647 35.485C21.7947 34.345 21.2697 33.175 20.7897 31.975C20.3397 30.745 19.8597 29.53 19.3497 28.33C19.0797 27.64 18.8097 26.935 18.5397 26.215C18.2697 25.465 17.9697 24.655 17.6397 23.785ZM5.08475 7.225H5.03975V6.46C5.06975 5.86 4.96475 5.365 4.72475 4.975C4.48475 4.585 4.04975 4.375 3.41975 4.345C2.84975 4.315 2.38475 4.465 2.02475 4.795C1.66475 5.095 1.46975 5.545 1.43975 6.145C1.40975 7.135 1.45475 8.125 1.57475 9.115C2.11475 12.205 2.69975 15.31 3.32975 18.43C3.83975 21.13 4.33475 23.815 4.81475 26.485C5.29475 29.125 5.78975 31.78 6.29975 34.45C6.41975 35.11 6.68975 35.635 7.10975 36.025C7.55975 36.415 8.09975 36.685 8.72975 36.835C10.0497 37.105 11.0697 36.73 11.7897 35.71C12.1197 35.23 12.4347 34.75 12.7347 34.27C13.0347 33.82 13.2597 33.325 13.4097 32.785C13.9197 30.985 14.3847 29.185 14.8047 27.385C15.2547 25.585 15.7197 23.8 16.1997 22.03C16.2897 21.73 16.4247 21.4 16.6047 21.04C16.8147 20.68 17.0847 20.5 17.4147 20.5C17.7147 20.5 17.9397 20.68 18.0897 21.04C18.2397 21.37 18.3747 21.655 18.4947 21.895C19.1847 23.905 19.8747 25.945 20.5647 28.015C21.2547 30.055 21.9297 32.095 22.5897 34.135C22.8297 34.885 23.2347 35.5 23.8047 35.98C24.3747 36.49 25.0347 36.745 25.7847 36.745C26.2647 36.715 26.7597 36.505 27.2697 36.115C27.7797 35.725 28.2297 35.335 28.6197 34.945C28.8897 34.675 29.0697 34.345 29.1597 33.955C29.2497 33.565 29.3397 33.175 29.4297 32.785C30.0597 29.335 30.6897 25.9 31.3197 22.48C31.9797 19.06 32.6247 15.64 33.2547 12.22C33.4047 11.41 33.5397 10.6 33.6597 9.79C33.7797 8.95 33.8547 8.11 33.8847 7.27C33.9447 6.67 33.8097 6.235 33.4797 5.965C33.1497 5.695 32.7147 5.53 32.1747 5.47C31.6347 5.41 31.1697 5.485 30.7797 5.695C30.3897 5.875 30.1497 6.265 30.0597 6.865C29.9697 7.585 29.8797 8.29 29.7897 8.98C29.7297 9.67 29.6397 10.36 29.5197 11.05C29.0397 14.14 28.5597 17.245 28.0797 20.365C27.5997 23.455 27.1047 26.53 26.5947 29.59C26.5347 29.92 26.3997 30.295 26.1897 30.715C25.9797 31.135 25.7097 31.345 25.3797 31.345C25.0497 31.345 24.7947 31.15 24.6147 30.76C24.4347 30.37 24.2997 30.025 24.2097 29.725C23.7597 28.255 23.3097 26.8 22.8597 25.36C22.4397 23.89 22.0047 22.42 21.5547 20.95C21.3447 20.17 21.1347 19.375 20.9247 18.565C20.7147 17.725 20.4597 16.93 20.1597 16.18C19.7397 15.04 19.0947 14.38 18.2247 14.2C17.3847 14.02 16.5297 14.365 15.6597 15.235C15.4497 15.445 15.2547 15.685 15.0747 15.955C14.9247 16.195 14.8197 16.465 14.7597 16.765C14.1597 18.775 13.5597 20.8 12.9597 22.84C12.3597 24.85 11.7447 26.86 11.1147 28.87C10.9947 29.26 10.8447 29.725 10.6647 30.265C10.4847 30.805 10.1847 31.075 9.76475 31.075C9.37475 31.045 9.10475 30.775 8.95475 30.265C8.80475 29.755 8.69975 29.32 8.63975 28.96C8.00975 25.51 7.40975 22.06 6.83975 18.61C6.26975 15.16 5.68475 11.71 5.08475 8.26C5.05475 8.08 5.03975 7.9 5.03975 7.72C5.06975 7.54 5.08475 7.375 5.08475 7.225ZM53.7185 11.905C53.5985 13.645 53.2535 15.235 52.6835 16.675C52.1135 18.115 51.4235 19.495 50.6135 20.815C50.2835 21.355 50.0735 21.76 49.9835 22.03C49.8935 22.3 49.9535 22.525 50.1635 22.705C50.3735 22.855 50.7635 23.095 51.3335 23.425C53.0135 24.385 54.1835 25.81 54.8435 27.7C54.9935 28.12 55.1585 28.555 55.3385 29.005C55.5185 29.425 55.7285 29.845 55.9685 30.265C56.4485 31.015 56.9435 31.495 57.4535 31.705C57.9935 31.915 58.6835 31.915 59.5235 31.705C60.0635 31.555 60.5435 31.525 60.9635 31.615C61.3835 31.705 61.7285 32.02 61.9985 32.56C62.1785 32.95 62.1035 33.415 61.7735 33.955C61.4435 34.465 60.9935 34.81 60.4235 34.99C59.4935 35.35 58.5485 35.545 57.5885 35.575C56.6285 35.605 55.6685 35.395 54.7085 34.945C54.4085 34.795 54.1235 34.705 53.8535 34.675C53.6135 34.675 53.3285 34.84 52.9985 35.17C51.7985 36.52 50.4485 37.39 48.9485 37.78C47.4485 38.2 45.8435 38.17 44.1335 37.69C42.6635 37.27 41.4785 36.55 40.5785 35.53C39.7085 34.54 39.1685 33.295 38.9585 31.795C38.7485 30.115 38.9135 28.555 39.4535 27.115C40.0235 25.645 41.0435 24.445 42.5135 23.515C44.3735 22.375 45.7685 20.95 46.6985 19.24C47.6585 17.53 48.4385 15.715 49.0385 13.795C49.1885 13.285 49.2185 12.82 49.1285 12.4C49.0685 11.98 48.8285 11.62 48.4085 11.32C47.9585 10.99 47.4935 10.855 47.0135 10.915C46.5335 10.945 46.0985 11.14 45.7085 11.5C45.3185 11.86 44.9735 12.265 44.6735 12.715C44.3735 13.135 44.0735 13.57 43.7735 14.02C43.5035 14.47 43.2185 14.89 42.9185 15.28C42.6485 15.64 42.1835 15.73 41.5235 15.55C40.9235 15.34 40.5185 15.025 40.3085 14.605C40.1285 14.155 40.0535 13.645 40.0835 13.075C40.1435 11.665 40.6985 10.36 41.7485 9.16C42.8285 7.96 44.1485 7.15 45.7085 6.73C47.1785 6.34 48.5885 6.31 49.9385 6.64C51.2885 6.97 52.3385 7.75 53.0885 8.98C53.3585 9.37 53.5385 9.835 53.6285 10.375C53.7485 10.885 53.7785 11.395 53.7185 11.905ZM39.9935 30.625C39.9335 32.575 40.4135 34.09 41.4335 35.17C42.4535 36.28 44.1035 37.03 46.3835 37.42C47.7935 37.6 48.9935 37.375 49.9835 36.745C50.9735 36.145 51.8885 35.275 52.7285 34.135C53.0585 33.685 53.3735 33.445 53.6735 33.415C53.9735 33.355 54.3485 33.52 54.7985 33.91C55.4885 34.48 56.2685 34.81 57.1385 34.9C58.0085 35.02 58.8785 34.96 59.7485 34.72C59.9885 34.66 60.2435 34.495 60.5135 34.225C60.7835 33.955 60.8735 33.67 60.7835 33.37C60.7235 33.13 60.5135 32.95 60.1535 32.83C59.8235 32.68 59.4035 32.695 58.8935 32.875C58.0535 32.965 57.3485 32.86 56.7785 32.56C56.2085 32.26 55.7435 31.72 55.3835 30.94C55.1735 30.52 54.9785 30.085 54.7985 29.635C54.6485 29.185 54.4685 28.735 54.2585 28.285C53.8385 27.325 53.2835 26.47 52.5935 25.72C51.9335 24.94 51.0785 24.34 50.0285 23.92C49.2485 23.59 48.8285 23.275 48.7685 22.975C48.7085 22.675 48.8735 22.15 49.2635 21.4C49.8635 20.14 50.4635 18.88 51.0635 17.62C51.6935 16.33 52.1735 15.025 52.5035 13.705C52.9235 12.055 52.8335 10.66 52.2335 9.52C51.6335 8.35 50.3885 7.66 48.4985 7.45C47.5385 7.36 46.5935 7.45 45.6635 7.72C44.7335 7.99 43.8785 8.485 43.0985 9.205C41.8985 10.315 41.2235 11.695 41.0735 13.345C41.0735 13.525 41.1035 13.75 41.1635 14.02C41.2535 14.29 41.4035 14.455 41.6135 14.515C41.8235 14.575 42.0185 14.515 42.1985 14.335C42.4085 14.155 42.5735 14.005 42.6935 13.885C42.9635 13.465 43.2035 13.045 43.4135 12.625C43.6235 12.205 43.8635 11.8 44.1335 11.41C44.6435 10.63 45.2885 10.09 46.0685 9.79C46.8785 9.49 47.6285 9.49 48.3185 9.79C49.0685 10.09 49.5935 10.585 49.8935 11.275C50.2235 11.965 50.2685 12.82 50.0285 13.84C49.5485 15.94 48.7985 17.89 47.7785 19.69C46.7885 21.49 45.3485 22.975 43.4585 24.145C42.0785 24.985 41.1635 25.99 40.7135 27.16C40.2935 28.33 40.0535 29.485 39.9935 30.625ZM52.5485 29.86C52.5485 30.79 52.2635 31.69 51.6935 32.56C51.1535 33.43 50.4335 34.135 49.5335 34.675C48.6635 35.215 47.7485 35.5 46.7885 35.53C45.3485 35.56 44.1635 35.11 43.2335 34.18C42.3335 33.25 41.8685 32.035 41.8385 30.535C41.8085 29.605 42.0185 28.735 42.4685 27.925C42.9185 27.115 43.5035 26.47 44.2235 25.99C44.9735 25.48 45.7685 25.255 46.6085 25.315C47.6885 25.375 48.6635 25.555 49.5335 25.855C50.4335 26.125 51.1535 26.575 51.6935 27.205C52.2635 27.835 52.5485 28.72 52.5485 29.86ZM42.8285 30.4C42.7985 31.42 43.1585 32.335 43.9085 33.145C44.6585 33.925 45.5135 34.33 46.4735 34.36C47.3435 34.39 48.1535 34.195 48.9035 33.775C49.6835 33.355 50.3135 32.8 50.7935 32.11C51.3035 31.42 51.5585 30.685 51.5585 29.905C51.5885 29.305 51.3785 28.735 50.9285 28.195C50.4785 27.625 49.9085 27.16 49.2185 26.8C48.5585 26.44 47.8535 26.26 47.1035 26.26C45.8735 26.23 44.8535 26.605 44.0435 27.385C43.2335 28.165 42.8285 29.17 42.8285 30.4ZM65.2494 4.84C65.2794 3.79 65.5794 2.92 66.1494 2.23C66.7494 1.51 67.4694 1.165 68.3094 1.195C68.8194 1.195 69.3144 1.36 69.7944 1.69C70.3044 2.02 70.7244 2.44 71.0544 2.95C71.3844 3.43 71.5494 3.94 71.5494 4.48C71.5794 5.08 71.4144 5.665 71.0544 6.235C70.6944 6.805 70.2444 7.27 69.7044 7.63C69.1644 7.99 68.5944 8.185 67.9944 8.215C67.1844 8.215 66.5244 7.915 66.0144 7.315C65.5044 6.685 65.2494 5.86 65.2494 4.84ZM66.3744 4.84C66.3444 6.34 66.8544 7.105 67.9044 7.135C68.5644 7.165 69.1344 6.925 69.6144 6.415C70.1244 5.905 70.3944 5.305 70.4244 4.615C70.4244 4.015 70.1994 3.475 69.7494 2.995C69.3294 2.515 68.8494 2.275 68.3094 2.275C67.7394 2.245 67.2894 2.47 66.9594 2.95C66.6294 3.4 66.4344 4.03 66.3744 4.84ZM65.6544 18.16C65.8044 17.11 66.1194 16.39 66.5994 16C67.0794 15.61 67.6644 15.46 68.3544 15.55C69.1944 15.67 69.8244 16.03 70.2444 16.63C70.6644 17.23 70.8744 18.025 70.8744 19.015C70.8444 20.815 70.8444 22.63 70.8744 24.46C70.9344 26.26 70.9494 28.06 70.9194 29.86C70.8894 30.91 70.8444 31.945 70.7844 32.965C70.7244 33.985 70.6644 35.02 70.6044 36.07C70.5744 36.82 70.2894 37.465 69.7494 38.005C69.2094 38.575 68.5944 38.89 67.9044 38.95C67.0644 39.01 66.4794 38.8 66.1494 38.32C65.8194 37.84 65.5794 37.27 65.4294 36.61C65.3094 36.07 65.2194 35.515 65.1594 34.945C65.1294 34.375 65.1144 33.805 65.1144 33.235C65.0844 32.305 65.0694 31.39 65.0694 30.49C65.0694 29.56 65.0694 28.63 65.0694 27.7C65.0694 27.7 65.0694 27.37 65.0694 26.71C65.0994 26.02 65.1294 25.165 65.1594 24.145C65.2194 23.095 65.2944 22.03 65.3844 20.95C65.4744 19.87 65.5644 18.94 65.6544 18.16ZM69.4794 21.31C69.4794 20.8 69.4794 20.29 69.4794 19.78C69.5094 19.27 69.4944 18.775 69.4344 18.295C69.4044 18.115 69.2844 17.92 69.0744 17.71C68.8944 17.5 68.7144 17.38 68.5344 17.35C68.4744 17.32 68.3244 17.275 68.0844 17.215C67.8444 17.155 67.5894 17.155 67.3194 17.215C67.0494 17.275 66.8244 17.485 66.6444 17.845C66.4644 18.205 66.3744 18.82 66.3744 19.69C66.4044 21.25 66.4194 22.795 66.4194 24.325C66.4494 25.825 66.4344 27.37 66.3744 28.96C66.3444 29.98 66.3294 31.105 66.3294 32.335C66.3294 33.565 66.3594 34.675 66.4194 35.665C66.4494 35.965 66.4794 36.31 66.5094 36.7C66.5394 37.09 66.6444 37.42 66.8244 37.69C67.0044 37.96 67.3494 38.08 67.8594 38.05C68.3094 38.02 68.6244 37.87 68.8044 37.6C68.9844 37.33 69.0894 37 69.1194 36.61C69.1794 36.22 69.2094 35.875 69.2094 35.575C69.2094 34.645 69.2094 33.565 69.2094 32.335C69.2394 31.075 69.2694 29.815 69.2994 28.555C69.3294 27.265 69.3444 26.08 69.3444 25C69.3744 23.89 69.3894 23.005 69.3894 22.345C69.4194 21.655 69.4494 21.31 69.4794 21.31ZM82.9439 22.66C82.9139 24.19 82.9289 25.72 82.9889 27.25C83.0489 28.75 83.0489 30.25 82.9889 31.75C82.9589 32.68 82.8689 33.52 82.7189 34.27C82.5989 35.02 82.3739 35.845 82.0439 36.745C81.9539 37.015 81.7289 37.33 81.3689 37.69C81.0389 38.05 80.6639 38.365 80.2439 38.635C79.8539 38.935 79.5089 39.1 79.2089 39.13C78.8489 39.16 78.4289 39.025 77.9489 38.725C77.4689 38.425 77.1089 38.095 76.8689 37.735C76.5689 37.315 76.3289 36.82 76.1489 36.25C75.9689 35.68 75.8789 35.14 75.8789 34.63C75.9089 31.87 75.9539 29.095 76.0139 26.305C76.1039 23.515 76.1939 20.71 76.2839 17.89C76.3439 16.3 76.4039 14.71 76.4639 13.12C76.5539 11.53 76.6439 9.925 76.7339 8.305C76.8239 7.345 76.9139 6.385 77.0039 5.425C77.1239 4.435 77.2739 3.46 77.4539 2.5C77.5739 1.72 77.8889 1.165 78.3989 0.834998C78.9389 0.504999 79.7189 0.369998 80.7389 0.429998C81.5189 0.459997 82.0739 0.684998 82.4039 1.105C82.7339 1.495 82.9139 2.05 82.9439 2.77C82.9739 3.61 82.9739 4.45 82.9439 5.29C82.9439 6.13 82.9439 6.97 82.9439 7.81C82.9439 7.81 82.9439 8.17 82.9439 8.89C82.9439 9.58 82.9439 10.495 82.9439 11.635C82.9739 12.745 82.9889 13.975 82.9889 15.325C82.9889 16.645 82.9889 17.95 82.9889 19.24C82.9889 20.53 82.9739 21.67 82.9439 22.66ZM81.5939 11.05C81.5939 11.05 81.5789 10.78 81.5489 10.24C81.5489 9.7 81.5489 9.025 81.5489 8.215C81.5489 7.375 81.5489 6.535 81.5489 5.695C81.5489 4.825 81.5489 4.075 81.5489 3.445C81.5489 2.935 81.4439 2.485 81.2339 2.095C81.0239 1.705 80.6339 1.57 80.0639 1.69C79.7939 1.75 79.5089 1.96 79.2089 2.32C78.9089 2.68 78.7289 3.025 78.6689 3.355C78.4889 4.045 78.3839 4.765 78.3539 5.515C78.3239 6.235 78.2939 6.955 78.2639 7.675C78.1439 9.865 78.0239 12.055 77.9039 14.245C77.8139 16.405 77.7239 18.58 77.6339 20.77C77.5439 23.14 77.4539 25.51 77.3639 27.88C77.3039 30.25 77.2439 32.62 77.1839 34.99C77.1839 35.35 77.2439 35.71 77.3639 36.07C77.5139 36.46 77.6789 36.82 77.8589 37.15C78.2789 37.75 78.7289 38.035 79.2089 38.005C79.7189 38.005 80.1239 37.675 80.4239 37.015C80.8439 36.085 81.1289 35.08 81.2789 34C81.4289 32.95 81.5189 31.975 81.5489 31.075C81.5789 30.175 81.5939 29.53 81.5939 29.14C81.7439 25.99 81.7439 22.975 81.5939 20.095C81.4739 17.215 81.4739 14.2 81.5939 11.05ZM143.269 2.005C144.229 2.065 145.264 2.275 146.374 2.635C147.514 2.965 148.639 3.475 149.749 4.165C150.769 4.795 151.609 5.59 152.269 6.55C152.929 7.51 153.454 8.515 153.844 9.565C154.054 10.075 154.084 10.63 153.934 11.23C153.814 11.8 153.469 12.235 152.899 12.535C152.389 12.835 151.864 12.91 151.324 12.76C150.814 12.61 150.394 12.235 150.064 11.635C149.494 10.555 148.909 9.64 148.309 8.89C147.709 8.11 146.944 7.525 146.014 7.135C145.084 6.745 143.839 6.61 142.279 6.73C141.589 6.76 140.884 7 140.164 7.45C139.474 7.87 138.874 8.395 138.364 9.025C137.854 9.655 137.539 10.33 137.419 11.05C137.359 11.32 137.359 11.62 137.419 11.95C137.509 12.25 137.614 12.55 137.734 12.85C138.244 13.96 138.949 14.905 139.849 15.685C140.779 16.435 141.799 17.095 142.909 17.665C143.809 18.115 144.709 18.55 145.609 18.97C146.539 19.36 147.454 19.78 148.354 20.23C150.214 21.22 151.699 22.465 152.809 23.965C153.949 25.435 154.564 27.28 154.654 29.5C154.714 30.88 154.384 32.2 153.664 33.46C152.944 34.69 151.984 35.725 150.784 36.565C149.614 37.405 148.324 37.885 146.914 38.005C144.814 38.215 142.849 38.215 141.019 38.005C139.189 37.825 137.464 37.195 135.844 36.115C135.544 35.935 135.094 35.575 134.494 35.035C133.924 34.495 133.354 33.85 132.784 33.1C132.244 32.35 131.854 31.555 131.614 30.715C131.404 29.845 131.494 29.005 131.884 28.195C132.274 27.475 132.769 27.04 133.369 26.89C133.969 26.71 134.524 26.92 135.034 27.52C135.454 28 135.919 28.555 136.429 29.185C136.969 29.815 137.464 30.34 137.914 30.76C139.144 31.96 140.509 32.71 142.009 33.01C143.509 33.28 145.054 33.355 146.644 33.235C147.334 33.175 147.904 32.905 148.354 32.425C148.804 31.915 149.074 31.33 149.164 30.67C149.404 29.44 149.254 28.345 148.714 27.385C148.204 26.425 147.394 25.645 146.284 25.045C144.784 24.175 143.269 23.32 141.739 22.48C140.239 21.61 138.769 20.695 137.329 19.735C135.889 18.775 134.779 17.515 133.999 15.955C133.219 14.365 132.724 12.73 132.514 11.05C132.364 9.58 132.589 8.305 133.189 7.225C133.789 6.115 134.614 5.14 135.664 4.3C136.594 3.55 137.644 2.965 138.814 2.545C140.014 2.095 141.499 1.915 143.269 2.005ZM144.259 37.24H144.934C146.704 37.12 148.279 36.76 149.659 36.16C151.069 35.56 152.179 34.42 152.989 32.74C153.439 31.81 153.649 30.775 153.619 29.635C153.619 28.465 153.379 27.325 152.899 26.215C152.449 25.075 151.759 24.085 150.829 23.245C149.299 21.835 147.529 20.755 145.519 20.005C143.959 19.405 142.489 18.655 141.109 17.755C139.759 16.825 138.544 15.715 137.464 14.425C136.684 13.435 136.294 12.415 136.294 11.365C136.324 10.285 136.669 9.295 137.329 8.395C137.989 7.495 138.859 6.82 139.939 6.37C141.379 5.77 142.654 5.5 143.764 5.56C144.874 5.62 145.819 5.875 146.599 6.325C147.409 6.745 148.069 7.24 148.579 7.81C149.119 8.38 149.509 8.86 149.749 9.25C149.989 9.61 150.214 9.97 150.424 10.33C150.634 10.69 150.874 11.035 151.144 11.365C151.234 11.485 151.384 11.575 151.594 11.635C151.834 11.695 152.014 11.71 152.134 11.68C152.284 11.59 152.434 11.455 152.584 11.275C152.734 11.065 152.809 10.87 152.809 10.69C152.839 10.48 152.809 10.27 152.719 10.06C152.629 9.82 152.554 9.595 152.494 9.385C152.134 7.975 151.369 6.805 150.199 5.875C149.059 4.945 147.709 4.255 146.149 3.805C144.619 3.355 143.074 3.175 141.514 3.265C139.984 3.355 138.634 3.745 137.464 4.435C136.504 5.005 135.679 5.77 134.989 6.73C134.329 7.69 133.879 8.74 133.639 9.88C133.429 11.02 133.519 12.175 133.909 13.345C134.449 14.995 135.289 16.36 136.429 17.44C137.599 18.49 138.874 19.45 140.254 20.32C141.394 21.04 142.564 21.715 143.764 22.345C144.994 22.945 146.209 23.575 147.409 24.235C148.639 24.895 149.494 25.765 149.974 26.845C150.484 27.895 150.709 29.095 150.649 30.445C150.589 31.375 150.229 32.245 149.569 33.055C148.909 33.835 148.114 34.27 147.184 34.36C145.054 34.54 143.044 34.36 141.154 33.82C139.264 33.28 137.614 32.095 136.204 30.265C135.784 29.665 135.304 29.14 134.764 28.69C134.644 28.54 134.449 28.405 134.179 28.285C133.909 28.135 133.669 28.09 133.459 28.15C133.339 28.24 133.189 28.405 133.009 28.645C132.829 28.885 132.739 29.23 132.739 29.68C132.739 30.16 132.814 30.61 132.964 31.03C133.144 31.42 133.354 31.825 133.594 32.245C134.404 33.505 135.379 34.465 136.519 35.125C137.689 35.815 138.934 36.31 140.254 36.61C141.604 36.91 142.939 37.12 144.259 37.24ZM172.81 11.905C172.69 13.645 172.345 15.235 171.775 16.675C171.205 18.115 170.515 19.495 169.705 20.815C169.375 21.355 169.165 21.76 169.075 22.03C168.985 22.3 169.045 22.525 169.255 22.705C169.465 22.855 169.855 23.095 170.425 23.425C172.105 24.385 173.275 25.81 173.935 27.7C174.085 28.12 174.25 28.555 174.43 29.005C174.61 29.425 174.82 29.845 175.06 30.265C175.54 31.015 176.035 31.495 176.545 31.705C177.085 31.915 177.775 31.915 178.615 31.705C179.155 31.555 179.635 31.525 180.055 31.615C180.475 31.705 180.82 32.02 181.09 32.56C181.27 32.95 181.195 33.415 180.865 33.955C180.535 34.465 180.085 34.81 179.515 34.99C178.585 35.35 177.64 35.545 176.68 35.575C175.72 35.605 174.76 35.395 173.8 34.945C173.5 34.795 173.215 34.705 172.945 34.675C172.705 34.675 172.42 34.84 172.09 35.17C170.89 36.52 169.54 37.39 168.04 37.78C166.54 38.2 164.935 38.17 163.225 37.69C161.755 37.27 160.57 36.55 159.67 35.53C158.8 34.54 158.26 33.295 158.05 31.795C157.84 30.115 158.005 28.555 158.545 27.115C159.115 25.645 160.135 24.445 161.605 23.515C163.465 22.375 164.86 20.95 165.79 19.24C166.75 17.53 167.53 15.715 168.13 13.795C168.28 13.285 168.31 12.82 168.22 12.4C168.16 11.98 167.92 11.62 167.5 11.32C167.05 10.99 166.585 10.855 166.105 10.915C165.625 10.945 165.19 11.14 164.8 11.5C164.41 11.86 164.065 12.265 163.765 12.715C163.465 13.135 163.165 13.57 162.865 14.02C162.595 14.47 162.31 14.89 162.01 15.28C161.74 15.64 161.275 15.73 160.615 15.55C160.015 15.34 159.61 15.025 159.4 14.605C159.22 14.155 159.145 13.645 159.175 13.075C159.235 11.665 159.79 10.36 160.84 9.16C161.92 7.96 163.24 7.15 164.8 6.73C166.27 6.34 167.68 6.31 169.03 6.64C170.38 6.97 171.43 7.75 172.18 8.98C172.45 9.37 172.63 9.835 172.72 10.375C172.84 10.885 172.87 11.395 172.81 11.905ZM159.085 30.625C159.025 32.575 159.505 34.09 160.525 35.17C161.545 36.28 163.195 37.03 165.475 37.42C166.885 37.6 168.085 37.375 169.075 36.745C170.065 36.145 170.98 35.275 171.82 34.135C172.15 33.685 172.465 33.445 172.765 33.415C173.065 33.355 173.44 33.52 173.89 33.91C174.58 34.48 175.36 34.81 176.23 34.9C177.1 35.02 177.97 34.96 178.84 34.72C179.08 34.66 179.335 34.495 179.605 34.225C179.875 33.955 179.965 33.67 179.875 33.37C179.815 33.13 179.605 32.95 179.245 32.83C178.915 32.68 178.495 32.695 177.985 32.875C177.145 32.965 176.44 32.86 175.87 32.56C175.3 32.26 174.835 31.72 174.475 30.94C174.265 30.52 174.07 30.085 173.89 29.635C173.74 29.185 173.56 28.735 173.35 28.285C172.93 27.325 172.375 26.47 171.685 25.72C171.025 24.94 170.17 24.34 169.12 23.92C168.34 23.59 167.92 23.275 167.86 22.975C167.8 22.675 167.965 22.15 168.355 21.4C168.955 20.14 169.555 18.88 170.155 17.62C170.785 16.33 171.265 15.025 171.595 13.705C172.015 12.055 171.925 10.66 171.325 9.52C170.725 8.35 169.48 7.66 167.59 7.45C166.63 7.36 165.685 7.45 164.755 7.72C163.825 7.99 162.97 8.485 162.19 9.205C160.99 10.315 160.315 11.695 160.165 13.345C160.165 13.525 160.195 13.75 160.255 14.02C160.345 14.29 160.495 14.455 160.705 14.515C160.915 14.575 161.11 14.515 161.29 14.335C161.5 14.155 161.665 14.005 161.785 13.885C162.055 13.465 162.295 13.045 162.505 12.625C162.715 12.205 162.955 11.8 163.225 11.41C163.735 10.63 164.38 10.09 165.16 9.79C165.97 9.49 166.72 9.49 167.41 9.79C168.16 10.09 168.685 10.585 168.985 11.275C169.315 11.965 169.36 12.82 169.12 13.84C168.64 15.94 167.89 17.89 166.87 19.69C165.88 21.49 164.44 22.975 162.55 24.145C161.17 24.985 160.255 25.99 159.805 27.16C159.385 28.33 159.145 29.485 159.085 30.625ZM171.64 29.86C171.64 30.79 171.355 31.69 170.785 32.56C170.245 33.43 169.525 34.135 168.625 34.675C167.755 35.215 166.84 35.5 165.88 35.53C164.44 35.56 163.255 35.11 162.325 34.18C161.425 33.25 160.96 32.035 160.93 30.535C160.9 29.605 161.11 28.735 161.56 27.925C162.01 27.115 162.595 26.47 163.315 25.99C164.065 25.48 164.86 25.255 165.7 25.315C166.78 25.375 167.755 25.555 168.625 25.855C169.525 26.125 170.245 26.575 170.785 27.205C171.355 27.835 171.64 28.72 171.64 29.86ZM161.92 30.4C161.89 31.42 162.25 32.335 163 33.145C163.75 33.925 164.605 34.33 165.565 34.36C166.435 34.39 167.245 34.195 167.995 33.775C168.775 33.355 169.405 32.8 169.885 32.11C170.395 31.42 170.65 30.685 170.65 29.905C170.68 29.305 170.47 28.735 170.02 28.195C169.57 27.625 169 27.16 168.31 26.8C167.65 26.44 166.945 26.26 166.195 26.26C164.965 26.23 163.945 26.605 163.135 27.385C162.325 28.165 161.92 29.17 161.92 30.4ZM186.996 22.615C187.986 21.505 189.036 20.815 190.146 20.545C191.256 20.275 192.351 20.305 193.431 20.635C194.391 20.935 195.096 21.46 195.546 22.21C196.026 22.96 196.281 23.86 196.311 24.91C196.761 24.22 197.226 23.71 197.706 23.38C198.186 23.02 198.816 22.81 199.596 22.75C200.286 22.69 201.021 22.765 201.801 22.975C202.581 23.185 203.286 23.41 203.916 23.65C204.936 24.04 205.671 24.745 206.121 25.765C206.571 26.755 206.826 27.745 206.886 28.735C207.036 30.115 207.096 31.495 207.066 32.875C207.066 34.255 207.036 35.635 206.976 37.015C206.976 37.495 206.811 37.855 206.481 38.095C206.181 38.365 205.776 38.5 205.266 38.5C204.786 38.5 204.366 38.38 204.006 38.14C203.676 37.93 203.481 37.555 203.421 37.015C203.391 36.235 203.361 35.47 203.331 34.72C203.331 34 203.331 33.265 203.331 32.515C203.331 32.005 203.331 31.48 203.331 30.94C203.361 30.4 203.346 29.89 203.286 29.41C203.256 28.69 203.061 28.105 202.701 27.655C202.341 27.175 201.906 26.89 201.396 26.8C200.736 26.74 200.121 26.86 199.551 27.16C199.011 27.46 198.651 27.955 198.471 28.645C198.231 29.605 198.036 30.595 197.886 31.615C197.736 32.635 197.586 33.625 197.436 34.585C197.376 34.915 197.301 35.245 197.211 35.575C197.151 35.905 197.076 36.235 196.986 36.565C196.866 36.955 196.671 37.36 196.401 37.78C196.161 38.23 195.801 38.47 195.321 38.5C194.391 38.5 193.836 38.26 193.656 37.78C193.476 37.3 193.356 36.79 193.296 36.25C193.146 35.35 193.041 34.42 192.981 33.46C192.981 32.32 192.996 31.18 193.026 30.04C193.056 28.87 193.041 27.73 192.981 26.62C192.951 26.29 192.846 25.93 192.666 25.54C192.486 25.12 192.276 24.85 192.036 24.73C191.736 24.58 191.361 24.55 190.911 24.64C190.491 24.7 190.116 24.82 189.786 25C188.466 25.75 187.716 26.92 187.536 28.51C187.416 29.44 187.326 30.355 187.266 31.255C187.206 32.155 187.131 33.07 187.041 34C187.011 34.36 186.981 34.72 186.951 35.08C186.951 35.44 186.921 35.815 186.861 36.205C186.531 37.765 185.781 38.515 184.611 38.455C184.101 38.395 183.681 38.125 183.351 37.645C183.051 37.165 182.886 36.55 182.856 35.8C182.796 33.55 182.796 31.24 182.856 28.87C182.886 26.68 182.901 24.505 182.901 22.345C182.931 20.155 182.961 17.98 182.991 15.82C183.021 15.4 183.261 15.01 183.711 14.65C184.161 14.26 184.641 14.05 185.151 14.02C185.661 13.99 186.081 14.125 186.411 14.425C186.741 14.695 186.921 15.07 186.951 15.55C187.011 16.21 187.026 16.885 186.996 17.575C186.966 18.235 186.966 18.88 186.996 19.51V22.615ZM196.086 27.79H195.636C195.606 27.28 195.576 26.755 195.546 26.215C195.516 25.645 195.456 25.12 195.366 24.64C195.246 24.25 195.096 23.875 194.916 23.515C194.766 23.125 194.556 22.78 194.286 22.48C193.776 21.88 193.206 21.535 192.576 21.445C191.946 21.355 191.331 21.355 190.731 21.445C189.441 21.595 188.436 22.15 187.716 23.11C187.536 23.38 187.341 23.71 187.131 24.1C186.951 24.46 186.696 24.58 186.366 24.46C186.066 24.37 185.931 24.1 185.961 23.65C186.021 23.2 186.051 22.825 186.051 22.525C186.051 21.415 186.066 20.32 186.096 19.24C186.156 18.13 186.171 17.02 186.141 15.91C186.141 15.67 186.036 15.415 185.826 15.145C185.616 14.875 185.421 14.725 185.241 14.695C184.851 14.635 184.566 14.74 184.386 15.01C184.206 15.25 184.116 15.55 184.116 15.91C184.086 16.6 184.041 17.29 183.981 17.98C183.951 18.67 183.921 19.345 183.891 20.005C183.861 22.195 183.816 24.37 183.756 26.53C183.726 28.69 183.696 30.85 183.666 33.01C183.666 33.58 183.651 34.135 183.621 34.675C183.591 35.245 183.621 35.83 183.711 36.43C183.741 36.64 183.861 36.895 184.071 37.195C184.311 37.525 184.581 37.69 184.881 37.69C185.121 37.69 185.331 37.57 185.511 37.33C185.721 37.09 185.841 36.865 185.871 36.655C186.021 35.995 186.111 35.335 186.141 34.675C186.171 34.045 186.201 33.415 186.231 32.785C186.321 31.495 186.456 30.22 186.636 28.96C186.816 27.7 187.281 26.515 188.031 25.405C188.991 23.845 190.326 23.32 192.036 23.83C192.756 24.04 193.251 24.37 193.521 24.82C193.821 25.27 193.971 25.99 193.971 26.98C193.941 28.09 193.896 29.2 193.836 30.31C193.806 31.39 193.791 32.485 193.791 33.595C193.791 34.015 193.806 34.435 193.836 34.855C193.896 35.275 194.001 35.695 194.151 36.115C194.211 36.325 194.346 36.55 194.556 36.79C194.766 37.03 194.976 37.165 195.186 37.195C195.396 37.225 195.621 37.135 195.861 36.925C196.131 36.715 196.311 36.505 196.401 36.295C196.551 35.995 196.641 35.68 196.671 35.35C196.731 35.02 196.776 34.705 196.806 34.405C196.956 33.325 197.091 32.23 197.211 31.12C197.331 30.01 197.541 28.945 197.841 27.925C198.051 27.145 198.456 26.575 199.056 26.215C199.656 25.825 200.316 25.675 201.036 25.765C201.756 25.825 202.386 26.155 202.926 26.755C203.256 27.145 203.526 27.61 203.736 28.15C203.946 28.69 204.066 29.215 204.096 29.725C204.156 30.655 204.156 31.615 204.096 32.605C204.036 33.565 203.991 34.51 203.961 35.44C203.931 35.71 203.916 35.98 203.916 36.25C203.946 36.55 204.006 36.835 204.096 37.105C204.156 37.255 204.246 37.42 204.366 37.6C204.486 37.81 204.711 37.915 205.041 37.915C205.191 37.915 205.371 37.825 205.581 37.645C205.791 37.465 205.911 37.285 205.941 37.105C206.061 36.865 206.121 36.595 206.121 36.295C206.151 36.025 206.181 35.74 206.211 35.44C206.241 34.84 206.241 34.225 206.211 33.595C206.211 32.965 206.256 32.32 206.346 31.66C206.556 29.86 206.226 28.12 205.356 26.44C205.206 26.14 204.981 25.81 204.681 25.45C204.381 25.06 204.066 24.79 203.736 24.64C203.286 24.4 202.821 24.205 202.341 24.055C201.891 23.905 201.351 23.83 200.721 23.83C199.491 23.83 198.546 24.085 197.886 24.595C197.256 25.075 196.746 25.795 196.356 26.755C196.326 26.935 196.281 27.115 196.221 27.295C196.191 27.445 196.146 27.61 196.086 27.79ZM222.986 8.755C223.856 8.755 224.561 8.995 225.101 9.475C225.641 9.925 225.911 10.51 225.911 11.23C225.911 12.22 225.581 13.12 224.921 13.93C224.291 14.74 223.541 15.145 222.671 15.145C221.831 15.145 221.096 14.815 220.466 14.155C219.836 13.465 219.536 12.67 219.566 11.77C219.566 10.9 219.896 10.18 220.556 9.61C221.246 9.01 222.056 8.725 222.986 8.755ZM222.626 14.065C223.286 14.035 223.796 13.78 224.156 13.3C224.516 12.82 224.711 12.22 224.741 11.5C224.741 10.84 224.561 10.39 224.201 10.15C223.871 9.91 223.406 9.79 222.806 9.79C222.146 9.79 221.621 10.015 221.231 10.465C220.871 10.915 220.706 11.485 220.736 12.175C220.826 13.375 221.456 14.005 222.626 14.065ZM221.186 29.635C221.186 28.435 221.171 27.235 221.141 26.035C221.141 24.835 221.156 23.635 221.186 22.435C221.186 21.985 221.246 21.55 221.366 21.13C221.486 20.68 221.876 20.41 222.536 20.32C223.226 20.2 223.886 20.305 224.516 20.635C225.146 20.965 225.536 21.415 225.686 21.985C225.776 22.285 225.836 22.6 225.866 22.93C225.896 23.23 225.911 23.545 225.911 23.875C225.881 26.515 225.836 29.14 225.776 31.75C225.716 34.33 225.641 36.925 225.551 39.535C225.491 41.305 225.146 42.715 224.516 43.765C223.886 44.815 222.671 45.43 220.871 45.61C220.301 45.64 219.536 45.655 218.576 45.655C217.646 45.685 216.881 45.64 216.281 45.52C214.181 45.25 212.591 44.5 211.511 43.27C210.431 42.07 209.681 40.09 209.261 37.33C209.201 36.82 209.186 36.295 209.216 35.755C209.246 35.215 209.366 34.735 209.576 34.315C209.726 33.985 210.011 33.7 210.431 33.46C210.851 33.19 211.241 33.055 211.601 33.055C211.871 33.055 212.156 33.25 212.456 33.64C212.756 34 212.981 34.345 213.131 34.675C213.311 35.095 213.431 35.545 213.491 36.025C213.581 36.535 213.671 37.03 213.761 37.51C213.971 38.53 214.331 39.385 214.841 40.075C215.381 40.795 216.116 41.26 217.046 41.47C217.766 41.65 218.516 41.59 219.296 41.29C220.076 41.02 220.571 40.525 220.781 39.805C220.931 39.235 221.006 38.59 221.006 37.87C221.036 37.18 221.066 36.55 221.096 35.98C221.126 35.44 221.141 34.81 221.141 34.09C221.171 33.4 221.186 32.71 221.186 32.02C221.186 31.33 221.186 30.76 221.186 30.31C221.186 29.86 221.186 29.635 221.186 29.635ZM222.131 38.275C222.101 40.735 221.111 42.16 219.161 42.55C217.871 42.82 216.701 42.715 215.651 42.235C214.601 41.785 213.866 41.005 213.446 39.895C213.206 39.295 213.041 38.65 212.951 37.96C212.891 37.3 212.756 36.64 212.546 35.98C212.456 35.65 212.321 35.26 212.141 34.81C211.961 34.39 211.691 34.21 211.331 34.27C211.031 34.27 210.806 34.48 210.656 34.9C210.506 35.32 210.401 35.68 210.341 35.98C210.161 37.66 210.356 39.145 210.926 40.435C211.526 41.755 212.426 42.775 213.626 43.495C214.856 44.245 216.311 44.635 217.991 44.665C219.701 44.695 221.036 44.515 221.996 44.125C222.956 43.765 223.631 43.12 224.021 42.19C224.411 41.26 224.606 39.97 224.606 38.32C224.636 35.83 224.666 33.355 224.696 30.895C224.726 28.435 224.741 25.975 224.741 23.515C224.741 23.275 224.726 23.035 224.696 22.795C224.666 22.555 224.606 22.345 224.516 22.165C224.246 21.775 223.946 21.55 223.616 21.49C223.196 21.4 222.866 21.46 222.626 21.67C222.416 21.85 222.281 22.015 222.221 22.165C222.131 22.645 222.101 23.155 222.131 23.695C222.191 24.205 222.221 24.715 222.221 25.225C222.221 25.525 222.221 26.08 222.221 26.89C222.221 27.67 222.221 28.585 222.221 29.635C222.221 30.685 222.206 31.765 222.176 32.875C222.176 33.985 222.161 35.02 222.131 35.98C222.131 36.94 222.131 37.705 222.131 38.275ZM244.447 24.955C244.597 26.845 244.417 28.6 243.907 30.22C243.427 31.84 242.797 33.385 242.017 34.855C241.237 36.295 240.217 37.36 238.957 38.05C237.727 38.74 236.362 38.98 234.862 38.77C233.002 38.53 231.457 37.885 230.227 36.835C228.997 35.785 228.247 34.45 227.977 32.83C227.737 31.45 227.602 30.07 227.572 28.69C227.572 27.28 227.722 25.885 228.022 24.505C228.202 23.755 228.367 23.065 228.517 22.435C228.667 21.775 228.847 21.115 229.057 20.455C229.537 18.715 230.437 17.41 231.757 16.54C233.107 15.64 234.697 15.295 236.527 15.505C237.007 15.535 237.487 15.61 237.967 15.73C238.447 15.85 238.912 15.97 239.362 16.09C240.472 16.39 241.387 16.885 242.107 17.575C242.827 18.265 243.292 19.165 243.502 20.275C243.712 21.145 243.907 21.985 244.087 22.795C244.297 23.605 244.417 24.325 244.447 24.955ZM229.372 25.945C229.282 26.755 229.222 27.58 229.192 28.42C229.162 29.26 229.147 30.115 229.147 30.985C229.117 32.815 229.762 34.465 231.082 35.935C231.682 36.625 232.432 37.12 233.332 37.42C234.262 37.75 235.207 37.885 236.167 37.825C237.157 37.765 238.057 37.525 238.867 37.105C239.707 36.685 240.337 36.07 240.757 35.26C241.747 33.4 242.467 31.465 242.917 29.455C243.367 27.445 243.397 25.375 243.007 23.245C242.767 21.865 242.377 20.65 241.837 19.6C241.297 18.55 240.517 17.74 239.497 17.17C238.507 16.6 237.142 16.375 235.402 16.495C234.292 16.555 233.347 16.87 232.567 17.44C231.817 17.98 231.202 18.73 230.722 19.69C230.572 20.02 230.437 20.365 230.317 20.725C230.197 21.085 230.077 21.46 229.957 21.85C229.867 22.12 229.777 22.54 229.687 23.11C229.597 23.68 229.522 24.25 229.462 24.82C229.432 25.36 229.402 25.735 229.372 25.945ZM241.522 25C241.582 26.74 241.432 28.435 241.072 30.085C240.742 31.735 240.097 33.295 239.137 34.765C238.657 35.515 238.057 36.025 237.337 36.295C236.647 36.595 235.762 36.64 234.682 36.43C233.692 36.25 232.867 35.875 232.207 35.305C231.547 34.765 231.142 34.09 230.992 33.28C230.572 31.06 230.482 28.885 230.722 26.755C230.992 24.625 231.532 22.51 232.342 20.41C232.882 19 233.902 18.265 235.402 18.205C235.822 18.205 236.212 18.205 236.572 18.205C236.962 18.205 237.352 18.235 237.742 18.295C238.702 18.445 239.437 18.82 239.947 19.42C240.487 19.99 240.862 20.65 241.072 21.4C241.282 22.15 241.402 22.855 241.432 23.515C241.492 24.175 241.522 24.67 241.522 25ZM240.577 24.955C240.547 24.415 240.472 23.8 240.352 23.11C240.232 22.39 240.022 21.715 239.722 21.085C239.422 20.425 238.972 19.915 238.372 19.555C237.712 19.135 236.977 19 236.167 19.15C235.387 19.3 234.682 19.645 234.052 20.185C233.422 20.725 233.002 21.385 232.792 22.165C232.312 23.935 231.997 25.645 231.847 27.295C231.697 28.915 231.727 30.655 231.937 32.515C232.027 33.265 232.192 33.82 232.432 34.18C232.702 34.54 233.167 34.885 233.827 35.215C234.487 35.515 235.147 35.62 235.807 35.53C236.467 35.47 237.037 35.215 237.517 34.765C237.937 34.345 238.267 33.925 238.507 33.505C238.747 33.055 238.957 32.545 239.137 31.975C239.467 30.895 239.812 29.785 240.172 28.645C240.562 27.475 240.697 26.245 240.577 24.955ZM260.527 22.975C260.527 22.015 260.512 21.13 260.482 20.32C260.452 19.51 260.452 18.64 260.482 17.71C260.482 17.2 260.572 16.765 260.752 16.405C260.962 16.015 261.307 15.76 261.787 15.64C262.417 15.46 262.957 15.55 263.407 15.91C263.857 16.24 264.097 16.765 264.127 17.485C264.157 18.775 264.172 20.065 264.172 21.355C264.172 22.645 264.142 23.95 264.082 25.27C264.082 26.14 264.052 27.025 263.992 27.925C263.932 28.825 263.827 29.71 263.677 30.58C263.557 31.48 263.377 32.365 263.137 33.235C262.927 34.105 262.702 34.975 262.462 35.845C262.252 36.505 261.877 37.045 261.337 37.465C260.827 37.885 260.257 38.185 259.627 38.365C258.157 38.785 256.657 38.995 255.127 38.995C253.627 38.995 252.157 38.665 250.717 38.005C249.877 37.585 249.217 37.06 248.737 36.43C248.287 35.8 247.957 35.05 247.747 34.18C247.267 32.08 246.997 29.98 246.937 27.88C246.877 25.78 246.922 23.68 247.072 21.58C247.132 20.92 247.177 20.275 247.207 19.645C247.237 19.015 247.282 18.385 247.342 17.755C247.372 17.515 247.402 17.275 247.432 17.035C247.492 16.765 247.582 16.525 247.702 16.315C247.912 15.895 248.182 15.61 248.512 15.46C248.872 15.31 249.232 15.295 249.592 15.415C250.252 15.625 250.687 16.03 250.897 16.63C251.017 16.93 251.077 17.215 251.077 17.485C251.107 17.725 251.107 18.01 251.077 18.34C250.897 20.65 250.777 22.96 250.717 25.27C250.687 27.58 250.867 29.875 251.257 32.155C251.707 34.555 253.147 35.665 255.577 35.485C256.897 35.365 257.872 35.05 258.502 34.54C259.162 34.06 259.597 33.175 259.807 31.885C259.927 31.135 260.032 30.265 260.122 29.275C260.242 28.255 260.332 27.265 260.392 26.305C260.452 25.345 260.497 24.55 260.527 23.92C260.557 23.29 260.557 22.975 260.527 22.975ZM250.267 17.665C250.177 17.425 250.057 17.17 249.907 16.9C249.757 16.6 249.562 16.435 249.322 16.405C249.082 16.375 248.842 16.48 248.602 16.72C248.392 16.93 248.242 17.155 248.152 17.395C248.062 17.635 247.987 18.19 247.927 19.06C247.897 19.9 247.867 20.95 247.837 22.21C247.837 23.44 247.852 24.745 247.882 26.125C247.942 27.475 248.017 28.81 248.107 30.13C248.227 31.42 248.377 32.56 248.557 33.55C248.827 34.93 249.322 35.965 250.042 36.655C250.792 37.375 251.887 37.855 253.327 38.095C254.227 38.275 255.097 38.335 255.937 38.275C256.807 38.215 257.662 38.095 258.502 37.915C259.582 37.675 260.392 37.225 260.932 36.565C261.472 35.905 261.847 35.11 262.057 34.18C262.717 31.6 263.077 29.02 263.137 26.44C263.197 23.83 263.272 21.235 263.362 18.655C263.392 18.505 263.377 18.28 263.317 17.98C263.287 17.68 263.212 17.395 263.092 17.125C262.972 16.825 262.792 16.66 262.552 16.63C262.372 16.6 262.177 16.66 261.967 16.81C261.757 16.96 261.607 17.11 261.517 17.26C261.397 17.41 261.322 17.605 261.292 17.845C261.262 18.085 261.247 18.325 261.247 18.565C261.247 20.065 261.247 21.58 261.247 23.11C261.277 24.61 261.247 26.11 261.157 27.61C261.097 28.63 260.977 29.65 260.797 30.67C260.617 31.66 260.362 32.635 260.032 33.595C259.792 34.375 259.342 35.005 258.682 35.485C258.022 35.965 257.272 36.28 256.432 36.43C255.622 36.61 254.797 36.595 253.957 36.385C253.147 36.205 252.457 35.815 251.887 35.215C251.257 34.615 250.837 33.925 250.627 33.145C250.417 32.365 250.312 31.57 250.312 30.76C250.282 30.01 250.267 29.11 250.267 28.06C250.267 26.98 250.267 25.87 250.267 24.73C250.297 23.56 250.312 22.465 250.312 21.445C250.312 20.395 250.312 19.54 250.312 18.88C250.312 18.19 250.297 17.785 250.267 17.665ZM270.965 33.145C270.965 33.625 270.98 34.12 271.01 34.63C271.04 35.14 271.025 35.65 270.965 36.16C270.935 36.97 270.68 37.57 270.2 37.96C269.75 38.35 269.225 38.53 268.625 38.5C268.085 38.44 267.62 38.17 267.23 37.69C266.84 37.21 266.66 36.625 266.69 35.935C266.75 34.525 266.81 33.115 266.87 31.705C266.96 30.265 267.035 28.84 267.095 27.43C267.215 25.66 267.335 23.875 267.455 22.075C267.575 20.275 267.695 18.49 267.815 16.72C267.815 16.24 267.86 15.775 267.95 15.325C268.07 14.815 268.31 14.47 268.67 14.29C269.06 14.08 269.495 13.99 269.975 14.02C270.455 14.05 270.89 14.17 271.28 14.38C271.67 14.59 271.865 14.905 271.865 15.325C271.925 16.075 271.925 16.825 271.865 17.575C271.805 18.325 271.76 19.06 271.73 19.78C271.7 20.17 271.67 20.545 271.64 20.905C271.64 21.265 271.625 21.625 271.595 21.985C271.535 22.555 271.475 22.99 271.415 23.29C271.385 23.56 271.46 23.68 271.64 23.65C271.85 23.62 272.27 23.44 272.9 23.11C273.98 22.51 275.165 22.21 276.455 22.21C277.775 22.18 278.945 22.285 279.965 22.525C281.465 22.825 282.59 23.5 283.34 24.55C284.12 25.6 284.645 26.89 284.915 28.42C285.155 29.71 285.29 31.015 285.32 32.335C285.38 33.625 285.44 34.93 285.5 36.25C285.53 36.43 285.5 36.625 285.41 36.835C285.35 37.045 285.275 37.24 285.185 37.42C284.975 37.93 284.66 38.26 284.24 38.41C283.82 38.56 283.37 38.605 282.89 38.545C282.44 38.485 282.125 38.32 281.945 38.05C281.765 37.78 281.675 37.465 281.675 37.105C281.675 36.055 281.69 35.035 281.72 34.045C281.78 33.085 281.795 32.08 281.765 31.03C281.765 28.48 280.55 26.965 278.12 26.485C277.55 26.395 276.965 26.35 276.365 26.35C275.795 26.32 275.21 26.35 274.61 26.44C273.29 26.68 272.345 27.235 271.775 28.105C271.205 28.975 270.92 30.1 270.92 31.48C270.92 31.81 270.92 32.17 270.92 32.56C270.95 32.95 270.965 33.145 270.965 33.145ZM271.73 24.82C271.46 24.94 271.19 24.925 270.92 24.775C270.65 24.595 270.515 24.355 270.515 24.055C270.515 23.845 270.515 23.635 270.515 23.425C270.515 23.215 270.53 23.005 270.56 22.795C270.62 21.655 270.68 20.53 270.74 19.42C270.83 18.28 270.89 17.155 270.92 16.045C270.92 15.835 270.815 15.595 270.605 15.325C270.395 15.025 270.155 14.86 269.885 14.83C269.645 14.8 269.42 14.92 269.21 15.19C269.03 15.43 268.91 15.655 268.85 15.865C268.73 16.165 268.655 16.48 268.625 16.81C268.625 17.14 268.625 17.47 268.625 17.8C268.505 20.17 268.385 22.54 268.265 24.91C268.175 27.28 268.07 29.665 267.95 32.065C267.92 32.845 267.89 33.625 267.86 34.405C267.86 35.185 267.875 35.965 267.905 36.745C267.935 36.925 268.025 37.15 268.175 37.42C268.355 37.72 268.58 37.87 268.85 37.87C269.48 37.87 269.84 37.3 269.93 36.16C269.99 35.11 270.02 34.06 270.02 33.01C270.02 31.96 270.08 30.91 270.2 29.86C270.41 28.39 270.905 27.28 271.685 26.53C272.495 25.78 273.62 25.33 275.06 25.18C275.96 25.09 276.86 25.09 277.76 25.18C279.35 25.33 280.535 25.795 281.315 26.575C282.125 27.325 282.62 28.495 282.8 30.085C282.86 30.745 282.875 31.42 282.845 32.11C282.815 32.77 282.785 33.415 282.755 34.045C282.755 34.255 282.725 34.57 282.665 34.99C282.605 35.44 282.56 35.89 282.53 36.34C282.53 36.79 282.575 37.18 282.665 37.51C282.785 37.84 283.01 38.005 283.34 38.005C284.12 38.005 284.51 37.555 284.51 36.655C284.51 35.575 284.51 34.48 284.51 33.37C284.54 32.26 284.525 31.15 284.465 30.04C284.435 29.05 284.165 28.03 283.655 26.98C283.175 25.9 282.5 25.06 281.63 24.46C280.64 23.77 279.665 23.395 278.705 23.335C277.775 23.245 276.695 23.275 275.465 23.425C274.955 23.485 274.34 23.665 273.62 23.965C272.9 24.265 272.27 24.55 271.73 24.82ZM289.151 4.84C289.181 3.79 289.481 2.92 290.051 2.23C290.651 1.51 291.371 1.165 292.211 1.195C292.721 1.195 293.216 1.36 293.696 1.69C294.206 2.02 294.626 2.44 294.956 2.95C295.286 3.43 295.451 3.94 295.451 4.48C295.481 5.08 295.316 5.665 294.956 6.235C294.596 6.805 294.146 7.27 293.606 7.63C293.066 7.99 292.496 8.185 291.896 8.215C291.086 8.215 290.426 7.915 289.916 7.315C289.406 6.685 289.151 5.86 289.151 4.84ZM290.276 4.84C290.246 6.34 290.756 7.105 291.806 7.135C292.466 7.165 293.036 6.925 293.516 6.415C294.026 5.905 294.296 5.305 294.326 4.615C294.326 4.015 294.101 3.475 293.651 2.995C293.231 2.515 292.751 2.275 292.211 2.275C291.641 2.245 291.191 2.47 290.861 2.95C290.531 3.4 290.336 4.03 290.276 4.84ZM289.556 18.16C289.706 17.11 290.021 16.39 290.501 16C290.981 15.61 291.566 15.46 292.256 15.55C293.096 15.67 293.726 16.03 294.146 16.63C294.566 17.23 294.776 18.025 294.776 19.015C294.746 20.815 294.746 22.63 294.776 24.46C294.836 26.26 294.851 28.06 294.821 29.86C294.791 30.91 294.746 31.945 294.686 32.965C294.626 33.985 294.566 35.02 294.506 36.07C294.476 36.82 294.191 37.465 293.651 38.005C293.111 38.575 292.496 38.89 291.806 38.95C290.966 39.01 290.381 38.8 290.051 38.32C289.721 37.84 289.481 37.27 289.331 36.61C289.211 36.07 289.121 35.515 289.061 34.945C289.031 34.375 289.016 33.805 289.016 33.235C288.986 32.305 288.971 31.39 288.971 30.49C288.971 29.56 288.971 28.63 288.971 27.7C288.971 27.7 288.971 27.37 288.971 26.71C289.001 26.02 289.031 25.165 289.061 24.145C289.121 23.095 289.196 22.03 289.286 20.95C289.376 19.87 289.466 18.94 289.556 18.16ZM293.381 21.31C293.381 20.8 293.381 20.29 293.381 19.78C293.411 19.27 293.396 18.775 293.336 18.295C293.306 18.115 293.186 17.92 292.976 17.71C292.796 17.5 292.616 17.38 292.436 17.35C292.376 17.32 292.226 17.275 291.986 17.215C291.746 17.155 291.491 17.155 291.221 17.215C290.951 17.275 290.726 17.485 290.546 17.845C290.366 18.205 290.276 18.82 290.276 19.69C290.306 21.25 290.321 22.795 290.321 24.325C290.351 25.825 290.336 27.37 290.276 28.96C290.246 29.98 290.231 31.105 290.231 32.335C290.231 33.565 290.261 34.675 290.321 35.665C290.351 35.965 290.381 36.31 290.411 36.7C290.441 37.09 290.546 37.42 290.726 37.69C290.906 37.96 291.251 38.08 291.761 38.05C292.211 38.02 292.526 37.87 292.706 37.6C292.886 37.33 292.991 37 293.021 36.61C293.081 36.22 293.111 35.875 293.111 35.575C293.111 34.645 293.111 33.565 293.111 32.335C293.141 31.075 293.171 29.815 293.201 28.555C293.231 27.265 293.246 26.08 293.246 25C293.276 23.89 293.291 23.005 293.291 22.345C293.321 21.655 293.351 21.31 293.381 21.31Z" fill="#FF8811"/>
</svg>
